<svg width="608" height="690" viewBox="0 0 608 690" fill="none" xmlns="http://www.w3.org/2000/svg">
<path fill-rule="evenodd" clip-rule="evenodd" d="M565 377L607.761 684.891L582.985 688.236L551.336 453.86L433.369 685.075L304.396 432.127L173.753 689.409L58.0396 456.566L24.746 688.341L0 684.786L42.5 377L173.993 633.718L304.35 377L433.377 630.052L565 377Z" fill="white"/>
<path d="M401.5 150.5H204L303.5 9L401.5 150.5Z" fill="white"/>
<path fill-rule="evenodd" clip-rule="evenodd" d="M303.531 0.26319L405.615 147.66L567.115 381.66L558.885 387.34L398.876 155.5H206.648L49.1356 387.31L40.8644 381.69L199.887 147.657L303.531 0.26319ZM213.628 145.5H391.955L303.469 17.7368L213.628 145.5Z" fill="white"/>
<path fill-rule="evenodd" clip-rule="evenodd" d="M296.5 690V401H311.5V690H296.5Z" fill="white"/>
</svg>
